<svg width="263" height="263" viewBox="0 0 263 263" fill="none" xmlns="http://www.w3.org/2000/svg">
<path d="M169.268 35.9127L166.416 17.3227C163.178 -3.78818 133.542 -5.80556 127.472 14.6716L119.059 43.0554C115.799 54.0536 103.975 60.0617 93.1698 56.211L46.062 39.4234C26.1544 32.3291 10.2811 56.9415 24.9557 72.1501L48.7621 96.8229C57.6267 106.01 55.7312 121.038 44.8629 127.736L10.5519 148.882C-8.35429 160.535 2.97713 189.715 24.7923 185.554L65.0648 177.873C77.3907 175.522 88.8119 184.971 88.8119 197.519V242.078C88.8119 263.306 117.523 269.912 126.801 250.819L156.417 189.869C160.958 180.525 171.897 176.213 181.593 179.946L235.505 200.706C255.872 208.548 272.286 182.749 256.553 167.624L217.822 130.389C209.155 122.057 209.745 108.015 219.082 100.44L244.31 79.9727C260.689 66.6843 248.006 40.3733 227.408 44.9093L193.338 52.4119C182.055 54.8965 171.02 47.3322 169.268 35.9127Z" fill="#3A3531"/>
</svg>
