<svg width="480" height="450" viewBox="0 0 480 450" fill="none" xmlns="http://www.w3.org/2000/svg">
<path d="M207.36 25.4162C117.885 33.9909 198.23 167.847 198.23 167.847C198.23 167.847 19.6456 40.0997 25.1235 222.544C30.6014 404.988 193.117 264.025 193.117 264.025C193.117 264.025 53.2441 392.507 193.117 421.874C332.991 451.241 269.445 264.025 269.445 264.025C269.445 264.025 353.807 421.874 435.613 311.747C517.419 201.62 311.078 204.556 311.078 204.556C311.078 204.556 514.148 198.683 425.022 79.0113C335.896 -40.6602 269.445 143.619 269.445 143.619C269.445 143.619 296.835 16.8414 207.36 25.4162Z" stroke="#3A3531" stroke-width="50"/>
</svg>
