<svg width="306" height="305" viewBox="0 0 306 305" fill="none" xmlns="http://www.w3.org/2000/svg">
<path d="M302.49 157.646C289.911 165.49 262.823 179.688 231.422 179.688C205.677 179.688 182.828 170.136 168.5 162.375L236.193 230.063C237.802 231.672 237.802 234.287 236.193 235.896C235.385 236.703 234.328 237.099 233.271 237.099C232.214 237.099 231.161 236.693 230.354 235.896L162.661 168.203C170.422 182.532 179.974 205.375 179.974 231.125C179.974 262.516 165.781 289.61 157.938 302.188C155.594 305.943 150.151 305.943 147.807 302.188C139.964 289.61 125.771 262.526 125.771 231.125C125.771 205.375 135.313 182.532 143.083 168.203L75.3906 235.896C73.7865 237.5 71.1719 237.5 69.5625 235.896C67.9531 234.287 67.9531 231.672 69.5625 230.063L137.25 162.375C122.927 170.136 100.078 179.688 74.3281 179.688C42.9375 179.688 15.8438 165.49 3.26562 157.646C-0.484375 155.308 -0.484375 149.86 3.26562 147.521C15.8438 139.677 42.9323 125.479 74.3281 125.479C100.078 125.479 122.927 135.026 137.25 142.792L69.5677 75.1045C67.9635 73.4951 67.9635 70.8805 69.5677 69.2712C71.1771 67.667 73.7917 67.667 75.401 69.2712L143.089 136.964C135.328 122.636 125.776 99.792 125.776 74.042C125.776 42.6514 139.974 15.5576 147.818 2.97949C150.161 -0.775716 155.604 -0.775716 157.943 2.97949C165.786 15.5576 179.984 42.6409 179.984 74.042C179.984 99.792 170.443 122.636 162.672 136.964L230.359 69.2712C231.969 67.667 234.583 67.667 236.193 69.2712C237.802 70.8805 237.802 73.4951 236.193 75.1045L168.5 142.792C182.828 135.032 205.677 125.479 231.422 125.479C262.818 125.479 289.911 139.677 302.49 147.521C306.24 149.86 306.24 155.313 302.49 157.646Z" fill="#3A3531"/>
</svg>
