<svg width="299" height="299" viewBox="0 0 299 299" fill="none" xmlns="http://www.w3.org/2000/svg">
<path d="M292.057 260.224C302.448 279.276 298.807 289.125 293.911 293.964C291.344 296.531 287.401 298.802 281.432 298.802C276.115 298.802 269.188 297.01 260.172 292.115C246.495 284.646 229.958 271.333 211.146 252.521C192.036 233.411 172.63 210.604 159.198 191.432C155.313 185.88 152.089 180.927 149.401 176.385C146.776 180.865 143.49 185.88 139.609 191.432C126.172 210.604 106.766 233.411 87.6563 252.521C68.849 271.333 52.3646 284.646 38.6355 292.115C29.7344 297.01 22.8073 298.802 17.4948 298.802C11.5209 298.802 7.58337 296.589 5.01566 293.964C0.119831 289.068 -3.526 279.276 6.86462 260.224C14.3282 246.552 27.6459 230.01 46.4532 211.198C65.5625 192.094 88.375 172.682 107.542 159.25C113.094 155.37 118.052 152.141 122.589 149.453C118.115 146.828 113.094 143.542 107.542 139.661C88.375 126.229 65.5625 106.818 46.4532 87.7135C27.6459 68.9635 14.2709 52.4791 6.86462 38.8073C-3.526 19.7552 0.119831 9.90621 5.01566 5.06767C9.9115 0.171833 19.7032 -3.474 38.75 6.91662C52.4271 14.3802 68.9688 27.6979 87.7761 46.5104C106.885 65.6145 126.292 88.427 139.729 107.594C143.609 113.151 146.833 118.104 149.521 122.646C152.151 118.167 155.432 113.151 159.313 107.594C172.75 88.427 192.156 65.6145 211.266 46.5104C230.078 27.6979 246.557 14.3802 260.292 6.91662C279.339 -3.474 289.135 0.171833 294.031 5.06767C298.927 9.9635 302.568 19.7552 292.177 38.8073C284.714 52.4791 271.396 69.0208 252.589 87.8281C233.479 106.937 210.667 126.344 191.5 139.781C185.948 143.661 180.99 146.885 176.453 149.573C180.932 152.203 185.948 155.484 191.5 159.37C210.667 172.802 233.479 192.208 252.589 211.318C271.281 230.068 284.656 246.552 292.057 260.224Z" fill="#3A3531"/>
</svg>
