<svg width="307" height="307" viewBox="0 0 307 307" fill="none" xmlns="http://www.w3.org/2000/svg">
<path d="M76.7764 153.396C34.443 153.396 0.0888672 119.042 0.0888672 76.7135C0.0888672 34.3854 34.443 0.03125 76.7764 0.03125C119.104 0.03125 153.459 34.3854 153.459 76.7135C153.459 119.042 119.104 153.396 76.7764 153.396Z" fill="#3A3531"/>
<path d="M153.459 230.083C153.459 272.411 119.104 306.765 76.7764 306.765C34.443 306.765 0.0888672 272.411 0.0888672 230.083C0.0888672 187.75 34.443 153.396 76.7764 153.396C119.104 153.396 153.459 187.75 153.459 230.083Z" fill="#3A3531"/>
<path d="M153.459 76.7135C153.459 34.3854 187.813 0.03125 230.141 0.03125C272.469 0.03125 306.823 34.3854 306.823 76.7135C306.823 119.042 272.469 153.396 230.141 153.396C187.813 153.396 153.459 119.042 153.459 76.7135Z" fill="#3A3531"/>
<path d="M306.823 230.083C306.823 272.411 272.469 306.765 230.141 306.765C187.813 306.765 153.459 272.411 153.459 230.083C153.459 187.75 187.813 153.396 230.141 153.396C272.469 153.396 306.823 187.75 306.823 230.083Z" fill="#3A3531"/>
</svg>
