<svg width="307" height="308" viewBox="0 0 307 308" fill="none" xmlns="http://www.w3.org/2000/svg">
<path d="M288.125 135.307C261.24 135.307 199.167 144.396 163.807 149.938C192.573 128.969 242.474 91.8125 261.734 72.6979C269.104 65.3802 269.474 53.3281 262.214 45.9063C254.875 38.4011 242.844 38.3594 235.453 45.7552C216.438 64.7656 178.979 115.083 157.885 144.01C163.406 108.839 172.417 47.2761 172.516 20.1458C172.557 9.76564 164.297 0.979176 153.917 0.869802C143.422 0.755218 134.88 9.22397 134.88 19.6875C134.88 46.5729 143.974 108.646 149.51 144.01C128.422 115.073 90.9636 64.7656 71.9479 45.7552C64.5469 38.349 52.5156 38.4011 45.1875 45.9063C37.9167 53.3281 38.2865 65.3802 45.6667 72.6979C64.9271 91.8125 114.839 128.969 143.594 149.938C108.427 144.417 46.8646 135.406 19.7344 135.307C9.34376 135.266 0.557301 143.516 0.447927 153.906C0.333344 164.401 8.8021 172.943 19.2656 172.943C46.1511 172.943 108.224 163.849 143.583 158.313C114.818 179.276 64.9167 216.432 45.6563 235.547C38.2865 242.87 37.9167 254.917 45.1771 262.339C52.5156 269.844 64.5469 269.885 71.9375 262.495C90.9531 243.484 128.411 193.161 149.505 164.24C143.984 199.406 134.974 260.969 134.875 288.099C134.833 298.49 143.094 307.266 153.484 307.38C163.979 307.49 172.516 299.026 172.516 288.563C172.516 261.677 163.427 199.599 157.885 164.24C178.979 193.172 216.438 243.479 235.453 262.495C242.854 269.896 254.885 269.844 262.214 262.339C269.484 254.917 269.115 242.87 261.734 235.547C242.474 216.432 192.563 179.276 163.807 158.313C198.974 163.828 260.536 172.839 287.667 172.943C298.057 172.984 306.833 164.719 306.943 154.328C307.068 143.844 298.599 135.307 288.125 135.307Z" fill="#3A3531"/>
</svg>
