<svg width="186" height="307" viewBox="0 0 186 307" fill="none" xmlns="http://www.w3.org/2000/svg">
<path d="M103.552 64.5V122.766C105.125 90.599 131.703 65.0052 164.255 65.0052H185.271C185.271 98.5729 158.058 125.786 124.485 125.786H103.552V184.057C105.125 151.891 131.703 126.297 164.255 126.292H185.271C185.271 159.865 158.058 187.078 124.485 187.078H103.552V245.344C105.125 213.182 131.703 187.583 164.255 187.583H185.271C185.271 221.151 158.058 248.365 124.485 248.365H103.552V306.276H82.3388V248.365H61.4221C27.8544 248.365 0.640869 221.151 0.640869 187.583H21.6513C54.0836 187.583 80.5732 212.984 82.3388 244.974V187.078H61.4221C27.8544 187.078 0.640869 159.865 0.640869 126.297V126.292L21.6513 126.297C54.0836 126.297 80.5732 151.693 82.3388 183.682V125.786H61.4221C27.8544 125.786 0.640869 98.5729 0.640869 65.0052H21.6513C54.0836 65.0052 80.5732 90.401 82.3388 122.391V64.5L61.4221 64.4948C27.8544 64.4948 0.640869 37.2813 0.640869 3.71354H21.6513C54.0836 3.71354 80.5732 29.1146 82.3388 61.1042V0.015625H103.552V61.4792C105.125 29.3125 131.703 3.71354 164.255 3.71354H185.271C185.271 37.2865 158.058 64.4948 124.485 64.4948L103.552 64.5Z" fill="#3A3531"/>
</svg>
