<svg width="304" height="157" viewBox="0 0 304 157" fill="none" xmlns="http://www.w3.org/2000/svg">
<path d="M302.771 156.484L220.589 156.302C222.703 124.5 208.854 105.474 193.073 94.2082V156.484H168.698V90.7551H154.427V156.484H130.057V90.7551H129.755C126.005 118.62 109.74 142.489 86.7604 156.484C69.0417 146.792 54.0417 133.463 39.4688 119.588C25.8646 106.625 12.9792 92.8748 0.828125 78.5207C12.9792 64.2238 25.8646 50.4738 39.4688 37.5103C54.0417 23.6353 69.0417 10.3071 86.7604 0.619629C109.74 14.6092 126.005 38.479 129.755 66.3436H130.057V0.619629H154.427V66.3436H168.76V0.619629H193.13V62.5884C208.917 51.4425 222.885 32.479 220.948 0.619629L303.193 0.796712C303.193 0.796712 307.547 65.0728 237.641 78.4582C307.427 92.2082 302.771 156.484 302.771 156.484Z" fill="#3A3531"/>
</svg>
