<svg width="437" height="434" viewBox="0 0 437 434" fill="none" xmlns="http://www.w3.org/2000/svg">
<path d="M289.427 120.973L302.508 170.986M156.657 162.431L179.548 214.418M418.347 206.371C428.926 328.681 331.558 415.506 221.463 416.975C111.368 418.445 36.3381 354.204 19.889 241.259C3.43997 128.315 96.9707 26.8468 200.96 17.7416C304.95 8.63638 407.768 84.0609 418.347 206.371ZM230.97 309.85C218.214 279.931 232.635 250.659 257.155 241.856C281.674 233.053 303.926 243.444 317.2 270.56C330.475 297.676 318.157 330.333 295.653 340.587C273.148 350.841 243.727 339.768 230.97 309.85Z" stroke="#3A3531" stroke-width="34"/>
</svg>
