<svg width="393" height="419" viewBox="0 0 393 419" fill="none" xmlns="http://www.w3.org/2000/svg">
<path d="M174.279 82.5C199 118 209.859 169.941 212.651 214.721M246 334C223 305.5 217.417 262.047 212.651 214.721M212.651 214.721C274.836 233.358 309.921 243.061 385.907 214.721M212.651 214.721C234.019 119.074 284 98 317.302 6M212.651 214.721C163.601 186.64 80 198.5 8 165.302M212.651 214.721C174.279 219 120.791 241 90.5581 257.163M212.651 214.721C194.568 303.543 177.574 347.899 120.791 406M212.651 214.721C258.841 236.53 287.354 260.402 317.302 299.5M212.651 214.721C233.732 239.96 246.368 253.371 260.326 285.07M212.651 214.721C268.745 173.615 295.628 148.368 332.5 98M212.651 214.721C211.465 217.19 170 299.5 67 340M212.651 214.721C246.59 209.264 283.385 201.608 317.302 188.183M212.651 214.721C206.98 203.696 188.916 184.064 177.5 172M381.5 151C370.491 160.334 358.364 168.322 345.5 175.2M143 124.5C147.175 134.937 153.84 144.812 161.5 154.237" stroke="#3A3531" stroke-width="35"/>
</svg>
