<svg width="446" height="413" viewBox="0 0 446 413" fill="none" xmlns="http://www.w3.org/2000/svg">
<path d="M131.651 58.9121C145.553 52.6101 163.428 51.3115 182.678 52.9538C193.945 51.9608 202.195 42.0303 201.546 30.7631C200.553 19.5341 190.622 11.1696 179.355 12.239C149.526 19.534 126.304 33.7422 111.064 49.2872C92.2346 67.5822 85.2833 86.7555 96.2068 99.054C100.79 104.325 109.155 107.648 119.352 109.328C132.606 111.582 149.182 111.276 159.8 112.651C143.529 117.273 115.38 119.297 97.1617 113.606C89.8666 111.925 82.9153 116.28 81.2348 123.231C79.2869 130.526 83.5646 137.477 90.8597 139.425C116.755 144.123 157.508 135.147 173.702 126.248C181.723 121.856 184.97 116.623 185.352 112.957C185.695 108.602 183.327 101.651 172.098 99.054C162.473 96.3804 138.908 99.7033 121.033 97.3735C114.387 96.3804 108.734 95.0819 105.832 91.377C98.8804 81.1792 111.714 67.8877 131.651 58.9121Z" fill="#3A3531"/>
<path d="M443.849 18.8084C441.825 9.5654 437.203 3.2634 430.596 1.54466C426.203 0.589818 421.926 1.23912 417.648 3.9127C411.957 7.23558 406.725 14.1869 403.058 19.1903C397.1 27.4402 389.461 46.3081 381.134 65.2523C375.864 77.4362 370.86 89.4291 366.239 99.3596C364.635 89.0854 362.954 76.1376 363.565 61.5857C364.215 49.9365 366.888 37.7144 371.586 25.1104C374.183 14.1869 367.232 2.91964 356.308 0.58981C345.385 -2.08378 334.118 4.562 331.788 15.8674C329.114 37.4089 331.139 57.3079 335.416 75.1827C340.763 97.679 348.364 115.248 352.985 123.231C356.958 130.526 361.312 132.779 362.305 132.779C363.565 133.199 369.905 134.154 373.228 127.547C373.878 125.828 374.909 122.2 376.513 116.929C380.18 106.005 385.832 87.7104 392.478 69.8356C399.429 51.6552 407.374 34.3915 413.027 26.4854C415.28 23.8118 417.954 20.1833 420.933 17.5098C422.881 15.4855 424.905 13.8431 426.929 14.4924C430.596 15.4855 430.252 20.8327 430.901 26.1416C431.856 36.7596 429.832 49.2872 429.183 55.5892C427.578 69.1863 425.249 82.7834 422.231 96.3804C414.631 128.196 404.051 159.668 395.801 190.796C394.082 198.091 398.704 205.042 406.075 206.761C413.027 208.022 419.978 203.744 421.582 196.487C426.624 169.293 433.155 141.755 438.196 113.95C441.481 95.0818 444.498 76.1376 445.453 56.8878C445.797 48.9816 447.096 31.1068 443.849 18.8084Z" fill="#3A3531"/>
<path d="M117.833 282.958C116.802 273.677 115.198 262.104 111.532 252.479C108.209 243.886 103.205 236.934 96.2538 233.306C85.6359 227.959 75.7054 231.282 67.4555 240.257C56.1883 252.479 47.5565 275.701 42.935 288.611L36.633 305.531C30.9421 293.882 22.3866 270.66 21.3936 230.632C21.0117 215.317 22.0429 197.786 25.0602 177.199C28.0393 154.397 33.9594 128.502 42.2857 98.7485C44.2336 87.7486 36.633 77.1306 25.3657 75.1827C14.4422 73.1585 3.78611 80.7591 1.83822 92.1027C-0.529812 124.224 -0.186018 151.724 0.539668 176.244C1.49452 197.442 2.79307 216.042 4.81735 231.931C12.7617 295.6 30.6365 319.052 32.317 321.381C34.6087 325.048 38.2371 326.729 42.2857 322.031C43.5843 320.427 46.2579 314.774 46.2579 314.43L54.8133 293.232C58.7855 283.302 65.4313 266.688 73.7576 255.459C78.3791 249.462 82.9623 244.229 88.6532 247.514C92.2816 249.462 93.9622 253.434 95.6045 258.132C98.2781 266.382 98.9275 276.312 99.233 284.257C100.226 303.507 98.9274 322.374 95.9101 340.669C92.931 359.499 88.0039 377.718 81.3582 394.943C79.0283 401.894 82.9623 409.571 89.9518 411.519C96.5594 413.887 104.275 410.221 106.528 403.269C112.181 384.02 116.153 364.197 118.177 343.649C119.781 323.406 119.781 303.201 117.833 282.958Z" fill="#3A3531"/>
<path d="M367.355 231.893C359.984 231.893 353.758 237.469 353.452 244.764C353.758 255.038 352.727 265.618 350.779 275.892C348.755 286.892 345.737 297.205 342.109 306.715C341.46 308.434 338.48 310.382 337.182 312.711C335.463 309.732 334.852 306.409 333.859 303.086C331.835 293.156 331.835 281.889 330.88 273.983C330.88 271.958 330.23 261.035 328.855 257.063C327.862 254.045 326.258 252.441 324.883 251.716C323.279 250.761 317.283 249.462 314.915 255.344C314.265 257.063 313.311 262.41 313.005 262.41L309.682 275.587C307.009 283.913 304.335 296.135 299.408 306.409C296.391 312.711 293.068 318.059 288.484 320.656C285.162 322.336 283.137 319.357 281.533 316.378C278.21 311.413 276.491 304.805 275.193 300.833C272.214 288.84 270.19 276.618 269.846 263.708C269.235 244.42 271.87 225.247 274.238 206.647C274.238 195.418 265.262 186.098 253.69 186.098C242.346 186.098 233.447 195.418 233.447 206.647C235.395 223.223 238.718 240.486 242.766 257.368C247.044 274.594 251.665 291.514 258.922 306.409C262.245 314.01 268.891 326.958 277.141 331.656C282.488 334.978 288.484 335.933 295.092 331.656C300.057 328.676 303.991 322.986 307.658 316.684C311.286 310.038 314.265 302.132 316.633 294.531C316.939 300.489 317.283 306.104 318.581 311.413C319.956 318.402 322.935 324.284 326.908 328.982C332.178 334.979 338.137 335.284 344.133 332.954C350.779 329.937 357.73 320.312 360.404 315.079C365.675 304.805 369.952 293.156 373.275 281.24C376.598 269.667 378.928 257.368 379.883 245.795C380.226 238.539 374.65 232.198 367.355 231.893Z" fill="#3A3531"/>
<path d="M311.545 132.779C304.594 130.87 302.646 122.582 301.271 114.255C297.948 91.0333 303.639 62.8843 303.639 61.9294C303.639 57.3079 294.319 45.0095 287.368 57.9572C287.024 58.9121 286.069 60.9364 284.771 63.9537L284.606 64.3276C278.87 77.352 266.065 106.425 255.247 114.255C252.229 116.623 248.295 118.571 243.674 119.602C240.045 120.252 235.997 120.252 232.025 118.877C228.396 117.273 225.723 114.905 224.08 112.307C222.056 109.023 221.407 104.974 221.101 101.651C220.452 94.3562 222.056 87.0611 224.73 80.1098C227.403 73.5022 232.33 67.8877 237.372 62.235C249.176 49 273.482 57.9572 275.451 35.6901C276.444 24.4611 268.5 14.1869 257.271 12.8883C249.594 13.5376 241.65 14.4925 235.348 19.8396C225.379 27.784 216.823 40.388 214.15 45.9643C209.528 55.2837 205.9 64.603 204.525 74.5334C202.883 84.8076 202.883 95.0818 205.556 104.63C207.199 109.977 209.223 115.554 213.157 120.252C216.823 124.529 221.101 128.196 227.747 130.526C233.705 132.474 240.351 132.474 246.271 131.175C252.229 129.877 257.92 127.547 262.198 124.529C267.545 120.901 273.771 113.606 279.424 104.974C279.118 112.307 279.118 119.946 280.417 126.897C282.747 141.144 290.042 152.067 301.996 157.376C308.948 159.973 316.587 156.651 319.26 150.043C321.819 143.054 318.191 135.453 311.545 132.779Z" fill="#3A3531"/>
<path d="M237.146 319.891C230.195 317.981 228.247 309.693 226.872 301.367C223.549 278.145 229.24 249.996 229.24 249.041C229.24 244.42 219.921 232.121 212.969 245.069C212.625 246.024 211.671 248.048 210.372 251.065L210.207 251.439C204.471 264.464 191.667 293.537 180.848 301.367C177.83 303.735 173.896 305.683 169.275 306.714C165.647 307.363 161.598 307.363 157.626 305.988C153.997 304.384 151.324 302.016 149.681 299.419C147.657 296.134 147.008 292.086 146.702 288.763C146.053 281.468 147.657 274.173 150.331 267.221C153.004 260.614 157.931 254.999 162.973 249.347C174.777 236.112 199.083 245.069 201.053 222.802C202.046 211.573 194.101 201.299 182.872 200C175.195 200.649 167.251 201.604 160.949 206.951C150.98 214.896 142.425 227.5 139.751 233.076C135.13 242.395 131.501 251.715 130.126 261.645C128.484 271.919 128.484 282.194 131.157 291.742C132.8 297.089 134.824 302.666 138.758 307.363C142.425 311.641 146.702 315.308 153.348 317.638C159.306 319.585 165.952 319.585 171.872 318.287C177.831 316.988 183.521 314.658 187.799 311.641C193.146 308.013 199.372 300.718 205.025 292.086C204.719 299.419 204.719 307.058 206.018 314.009C208.348 328.256 215.643 339.179 227.598 344.488C234.549 347.085 242.188 343.762 244.861 337.155C247.42 330.165 243.792 322.565 237.146 319.891Z" fill="#3A3531"/>
</svg>
